inDegrees=no
num_controls=7
num_derivatives=13
num_iterations=38
num_multipliers=7
num_parameters=0
num_slacks=7
num_states=26
objective=0.426523
objective_accelerations=0.057900
objective_balance=0.001138
objective_effort=0.015350
objective_height=0.346168
objective_ligament=0.005966
solver_duration=614.227376
status=Solve_Succeeded
success=true
DataType=double
version=3
OpenSimVersion=4.5
endheader
time	/jointset/ground_pelvis/pelvis_tilt/value	/jointset/ground_pelvis/pelvis_tx/value	/jointset/ground_pelvis/pelvis_ty/value	/jointset/hip_l/hip_flexion_l/value	/jointset/hip_l/hip_adduction_l/value	/jointset/hip_l/hip_rotation_l/value	/jointset/back/lumbar_extension/value	/jointset/patellofemoral_l/patellar_flexion_l/value	/jointset/knee_l/knee_flexion_l/value	/jointset/knee_l/knee_adduction_l/value	/jointset/knee_l/knee_rotation_l/value	/jointset/ankle_l/ankle_angle_l/value	/jointset/subtalar_l/subtalar_angle_l/value	/jointset/ground_pelvis/pelvis_tilt/speed	/jointset/ground_pelvis/pelvis_tx/speed	/jointset/ground_pelvis/pelvis_ty/speed	/jointset/hip_l/hip_flexion_l/speed	/jointset/hip_l/hip_adduction_l/speed	/jointset/hip_l/hip_rotation_l/speed	/jointset/back/lumbar_extension/speed	/jointset/patellofemoral_l/patellar_flexion_l/speed	/jointset/knee_l/knee_flexion_l/speed	/jointset/knee_l/knee_adduction_l/speed	/jointset/knee_l/knee_rotation_l/speed	/jointset/ankle_l/ankle_angle_l/speed	/jointset/subtalar_l/subtalar_angle_l/speed	/forceset/tau_hip_flexion_l	/forceset/tau_hip_adduction_l	/forceset/tau_hip_rotation_l	/forceset/tau_knee_flexion_l	/forceset/tau_ankle_angle_l	/forceset/tau_subtalar_angle_l	/forceset/tau_lumbar_extension	lambda_cid13_p0	lambda_cid13_p1	lambda_cid13_p2	lambda_cid13_p3	lambda_cid13_p4	lambda_cid13_p5	lambda_cid14_p0	/jointset/ground_pelvis/pelvis_tilt/accel	/jointset/ground_pelvis/pelvis_tx/accel	/jointset/ground_pelvis/pelvis_ty/accel	/jointset/hip_l/hip_flexion_l/accel	/jointset/hip_l/hip_adduction_l/accel	/jointset/hip_l/hip_rotation_l/accel	/jointset/back/lumbar_extension/accel	/jointset/patellofemoral_l/patellar_flexion_l/accel	/jointset/knee_l/knee_flexion_l/accel	/jointset/knee_l/knee_adduction_l/accel	/jointset/knee_l/knee_rotation_l/accel	/jointset/ankle_l/ankle_angle_l/accel	/jointset/subtalar_l/subtalar_angle_l/accel	gamma_cid13_p0	gamma_cid13_p1	gamma_cid13_p2	gamma_cid13_p3	gamma_cid13_p4	gamma_cid13_p5	gamma_cid14_p0
1.5	-0.3490793062476774	0.05750585785328394	0.7908525216781209	1.00624207071824	-0.358465181945222	-0.05179213764040702	-0.3286397044622895	0.8207358371929818	0.8207358371929763	-0.03400465660218882	-0.171606581528896	0.2826309758963399	0.1577715618225072	0.4891139053168326	0.2688111177160946	0.4958100304137555	-2.315927465396762	-0.004160468197475915	-0.5881175730770515	0.6140516912545894	-2.211519299566761	-2.211519299566767	-0.3238329126854747	0.03673826733422587	-0.5595532364932907	-0.2290900118933132	-0.135625971453553	0.08330718525133254	-0.0006345778738714963	-0.1209726918114591	-0.04065821536696682	-0.01710701418158203	0.1277866839406253	-38.84117774960566	14.95704543814556	-3.495593302646649	0.09193561915369719	-428.7396366672651	-20.88286393146425	-10.09845206109959	0.5994218606874422	0.5122131170017225	-0.7818454755569025	-1.205532569028095	0.3207852589717585	-0.613415735574953	1.569227665612608	-1.14830851980573	-1.148308519805743	-0.01592671449523198	0.2960360626506305	-0.6085329682305032	0.4315139773989626	5.808285121427891e-07	-1.838535632097291e-07	-7.213639918548706e-06	-3.66160102008531e-07	1.500259231903235e-06	1.989831678988123e-06	8.141051889430209e-07
1.51	-0.3441581453409108	0.06021917956040239	0.7957705598006217	0.9830239967966609	-0.3584933443451199	-0.05769705334291789	-0.3224226686799156	0.7985653017891756	0.798565301789178	-0.03725305779044552	-0.1712232565871462	0.2770048776882446	0.1554985431137785	0.4950345358998684	0.2738039766313314	0.4876873259083436	-2.327352660754006	-0.001468238239708978	-0.5927831466562992	0.6292553532654011	-2.222262400573426	-2.222262400573457	-0.325833577465317	0.03995768824987569	-0.5655699914145894	-0.2254775232235897	-0.1313598087137319	0.08191489388631026	0.0004110925402745896	-0.1175870622904473	-0.04111793721821649	-0.0181270278870717	0.124179895008056	-38.85585184464005	15.15825381149345	-3.248563984758198	0.4927258691869382	-425.4699358187094	-20.79622131700931	-11.01434810799741	0.5758698287548942	0.4853781555215264	-0.8437138666626125	-1.060735497140843	0.245063366978141	-0.379888480276267	1.480918675792021	-0.9886665084676426	-0.9886665084715179	-0.2902673096285268	0.3382618751021274	-0.5837626618483714	0.332330459670254	5.76329237245243e-07	1.3683697975528e-07	-7.061423007908251e-06	-3.127978410113395e-07	1.530771744782352e-06	2.296797716292995e-06	8.137397284680324e-07
1.52	-0.3391802808939771	0.06298094103202014	0.8006041246923423	0.9597017264259047	-0.3584942601448729	-0.06364597684344468	-0.3160565996360361	0.7762970642518399	0.7762970642518133	-0.04052109181664099	-0.1708070640823662	0.2713215087493763	0.1532628921213307	0.500454613348619	0.2784990706159551	0.4789153842577582	-2.336766755234003	0.001288851829987768	-0.5969191326825976	0.6438583435552802	-2.231059726274916	-2.231059726274972	-0.3277594802411344	0.04331177992872064	-0.5710073826466356	-0.221616468637413	-0.1270936459738576	0.08052260252139948	0.001456762953892518	-0.1142014327694033	-0.04157765906942408	-0.01914704159238973	0.1205731060755178	-38.86595570283149	15.35714150878846	-2.999423248759667	0.8424081726227677	-422.1261118762329	-20.81876316656727	-11.92714291725999	0.4993112338305278	0.4526601308790303	-0.9116929045915847	-0.8033123935786166	0.3337572813577865	-0.5074982249850489	1.449093321426133	-0.7591534587706489	-0.7591534587706544	-0.0009743136902011481	0.322970215289665	-0.4926602303800798	0.4812271606895765	4.963689163261286e-07	1.249630220634359e-06	-6.006858593619199e-06	-1.15856956676674e-07	1.374455549860676e-06	2.604645620584689e-06	7.838948946703426e-07
1.53	-0.3341509798098682	0.06578806567259005	0.8053468420249507	0.9362956053984489	-0.358466913773546	-0.06963869074814301	-0.3095478896978248	0.7539504786214416	0.7539504786215202	-0.04380409832601444	-0.1703598813992005	0.2655866749171082	0.1510676696393415	0.5053014801279441	0.2828656951037272	0.469530673189169	-2.344112889831419	0.004153340526729211	-0.6013240627055387	0.6577388483622519	-2.237957812164407	-2.237957812164373	-0.3290307684561394	0.04627968387210332	-0.5758900564957494	-0.2174503311149821	-0.1224827840363332	0.07869793577721718	0.002600996775152465	-0.1116064994987889	-0.0414010128173277	-0.02034178314925569	0.1166933407325556	-38.71105644107511	15.64326939457758	-2.810166960858427	1.172575056503169	-419.1019726096085	-20.84141199849497	-12.83578583189123	0.4617894697193212	0.4197233960602094	-0.9663056334329428	-0.648535399444611	0.2587557277188061	-0.3613703530946153	1.335809701841538	-0.6103360056894432	-0.6103360056756971	-0.2180183716846331	0.3064757853179921	-0.4755047946168741	0.3806389849324823	3.362312340090987e-07	3.204032578047129e-06	-3.99354995670352e-06	2.336362149540564e-07	1.019633852900662e-06	2.913430508549882e-06	7.227282267172829e-07
1.54	-0.3290763270440177	0.06863706851570407	0.8099928231617847	0.9128263687437006	-0.3584117303024688	-0.07566632994548171	-0.3029047185832405	0.7315438721618968	0.731543872161898	-0.04710538017727722	-0.169878464616094	0.2598051275798517	0.1489133749199607	0.509524949696687	0.286874711124778	0.459568145102928	-2.349389880693717	0.006856271778894973	-0.6039041912142955	0.6707505788295809	-2.243063892119936	-2.243063892119809	-0.3314145485222795	0.05015859987369226	-0.5803500836424555	-0.2134309161160401	-0.1178719220987274	0.07687326903318328	0.003745230594777578	-0.1090115662281198	-0.04122436656517459	-0.02153652470588089	0.1128135753896403	-38.55221965913004	15.92745879961864	-2.619170565096604	1.473726097699379	-416.0128241725261	-20.92521137539732	-13.74001106030013	0.3746317917142154	0.3811384375347061	-1.027256308121941	-0.3894836465548557	0.3014457924427902	-0.1425379221481982	1.275338453497611	-0.4007522719777803	-0.4007522719777845	-0.2234726839171898	0.5051726269309127	-0.4081308898987103	0.4518826559917702	1.574091474475898e-07	4.963767397338328e-06	-1.832474445451429e-06	5.564662277906805e-07	6.146862624022768e-07	2.961344728744063e-06	6.307217360510396e-07
1.55	-0.3239625330349661	0.07152443371137256	0.8145363606450562	0.8893150256399903	-0.3583290233249486	-0.08171896537609585	-0.2961353054573318	0.7090959923667292	0.7090959923666531	-0.05042828553467035	-0.1693585360714364	0.2539820081444084	0.146800741493285	0.5131506180223188	0.2905455254408816	0.4490524876178345	-2.352548750138922	0.009667297292655681	-0.6064394489428042	0.6830159500177744	-2.246168729801733	-2.246168729801721	-0.3332485236522037	0.05389267619840401	-0.5841594022272306	-0.2090898663798665	-0.1135959625552769	0.07499759539390476	0.004737300268102966	-0.1063661152630351	-0.04115559504267794	-0.02271835849561512	0.1092333499209871	-38.4442367446152	16.20991475243681	-2.422152660959263	1.709688901778855	-413.3123846831667	-21.00719830565132	-14.64028691764526	0.3440560028054351	0.3523347148686641	-1.076771072999112	-0.2295959273912461	0.2671944970015843	-0.2811923625937516	1.184722001558243	-0.213935414101362	-0.2139354141186051	-0.1744475150395085	0.3177836632879196	-0.3498952616353113	0.424730795077566	-4.294062226516532e-08	6.499211357489467e-06	4.988542036230414e-07	8.485756446254014e-07	1.519849250009891e-07	2.708690570854266e-06	5.031824061717823e-07
1.56	-0.3188149780126919	0.07444696340744603	0.818972131432617	0.8657819923750503	-0.3582189533790487	-0.08779138791688766	-0.2892467215095251	0.6866273470151227	0.6866273470150919	-0.05377174816062393	-0.168799215058047	0.2481242829393471	0.1447314214965016	0.5162771523406763	0.2939076112057728	0.4380148059608445	-2.353727912939641	0.01232886545277994	-0.6078616132469838	0.6945847432090924	-2.247217003396354	-2.247217003396456	-0.3355260022825111	0.05803709364498529	-0.5872712375667415	-0.2047682301377972	-0.1093200030118605	0.07312192175457106	0.005729369942379694	-0.1037206642979782	-0.04108682352020343	-0.02390019228544534	0.1056531244523163	-38.33402430464954	16.49190250900329	-2.224970921388157	1.943041700973782	-410.5657421646042	-21.08564059200743	-15.53631900652131	0.2748049902594548	0.3193927272921227	-1.1316611425012	0.006457682342412953	0.2715543217154713	0.08008076271763483	1.13602285412257	0.01056054545769456	0.01056054545769459	-0.3121733839937788	0.5872408513048465	-0.2686342408460182	0.4479999571709085	-1.220046625204999e-07	7.010348996968692e-06	1.337396546648312e-06	9.509278722529184e-07	-2.399029724437058e-08	2.59752857683791e-06	4.52967722669396e-07
1.57	-0.3136389203705499	0.07740138548105711	0.8232950343770409	0.8422473572874232	-0.3580831554559712	-0.09387082782825608	-0.2822463111641161	0.6641582497129707	0.6641582497128857	-0.05714148855260149	-0.1681951419098679	0.2422385719259705	0.1427048831115993	0.5188233843217689	0.2969041833629553	0.4264931753810837	-2.352828115563395	0.01484187197816201	-0.6080010072184112	0.7053370385007395	-2.246276554467997	-2.246276554467985	-0.338343027296588	0.06276091140436689	-0.5897784542662268	-0.200503851458588	-0.1048745682352611	0.07123437390823771	0.006590433703484838	-0.1013761347590268	-0.0409957251194674	-0.02518784803750616	0.1019022590143095	-38.25206303979537	16.83701059256457	-2.051805288767873	2.310576891701646	-408.1780608638995	-21.13227370604713	-16.41773771942159	0.2278985491340204	0.2790441257922615	-1.173252451328364	0.1874010134257951	0.2422562235882171	-0.05671021162660347	1.020789761124334	0.1845672228134543	0.1845672228306408	-0.2537288983090227	0.4124708115402647	-0.2276775782314126	0.4201175302338013	-4.946154095406028e-08	6.241103735608037e-06	3.099560071121033e-07	8.160836133714327e-07	1.584421244551762e-07	2.663231787663354e-06	4.994088471380973e-07
1.58	-0.3084407271591725	0.08038362420941209	0.8275005533285436	0.8187328522231904	-0.3579220109865062	-0.09995081382626335	-0.2751431864869018	0.641708312931298	0.641708312931288	-0.060536851562102	-0.1675443268695772	0.2363306063068574	0.1407218806548771	0.5207042661868669	0.299470942154544	0.4145380073766891	-2.349701908260745	0.01739817472910506	-0.6079708305719966	0.7151276095699317	-2.243384899288088	-2.243384899287961	-0.3406505258384477	0.06738547209517162	-0.5917221587149758	-0.1960610445018648	-0.1004291334587106	0.06934682606182539	0.007451497465604896	-0.09903160522011813	-0.04090462671875954	-0.02647550378968963	0.0981513935762806	-38.17196443115223	17.18308069424419	-1.879519215021226	2.674716138137712	-405.8161984787847	-21.2144323349516	-17.27769264633019	0.1417349670605911	0.2334300541732739	-1.218368627427955	0.4517396676229116	0.2802135668276264	0.1139948862860311	0.943678009631621	0.4008017957680316	0.4008017957680308	-0.2102680895502965	0.5673894375895085	-0.1559317906989343	0.4836856126737282	-9.618078322419565e-09	5.819000563675115e-06	-3.240672446053044e-07	7.397756269343711e-07	2.606281479821678e-07	2.711257695814347e-06	5.332888853843306e-07
1.59	-0.3032270062568366	0.083389476813375	0.8315844637170324	0.7952606670987009	-0.3577350772402403	-0.1060296491363576	-0.2679467813407845	0.619297389727366	0.6192973897272901	-0.06395280150121738	-0.166847914700101	0.2304063820598861	0.13878434550276	0.5219338626414314	0.3016360820206107	0.4021845281427146	-2.344370910840774	0.02000223245145599	-0.6077713248837111	0.7240082133939164	-2.238446085919287	-2.238446085919255	-0.3424427378236372	0.07186923763096682	-0.592996129725348	-0.1913971185008039	-0.09602940790867553	0.06722497039898946	0.008201816566297098	-0.09706173236613538	-0.04025953752301609	-0.02778301428241468	0.09450283961906555	-37.93168160496894	17.53081165817957	-1.731582407050607	2.813735039982542	-403.8315396501459	-21.36552750589222	-18.1102919841438	0.0976779493716295	0.198680415380229	-1.25271891739752	0.628420757282377	0.2519549119250237	-0.02288640920014627	0.8384706300953533	0.5933574146693057	0.5933574146549875	-0.1482967709367138	0.3846723668545781	-0.09393793249772245	0.4642066961104986	-1.415272424514634e-08	5.868018798822662e-06	-4.241670342829401e-07	7.429097245290235e-07	2.539083454178402e-07	2.735292978907155e-06	5.501217351857864e-07
